<?xml version="1.0" encoding="iso-8859-1"?>
<!-- Generator: Adobe Illustrator 18.1.1, SVG Export Plug-In . SVG Version: 6.00 Build 0)  -->
<svg version="1.1" id="Capa_1" xmlns="http://www.w3.org/2000/svg" xmlns:xlink="http://www.w3.org/1999/xlink" x="0px" y="0px"
	 viewBox="0 0 14.788 14.788" style="enable-background:new 0 0 14.788 14.788;" xml:space="preserve">
<g>
	<g>
		<path style="fill:#030104;" d="M7.402,0C3.32,0,0,3.316,0,7.394s3.32,7.394,7.402,7.394c4.072,0,7.386-3.316,7.386-7.394
			S11.474,0,7.402,0z M7.402,13.911c-3.598,0-6.525-2.923-6.525-6.517s2.927-6.517,6.525-6.517c3.589,0,6.509,2.923,6.509,6.517
			S10.991,13.911,7.402,13.911z"/>
		<path style="fill:#030104;" d="M4.748,7.864c0,0,1.425-1.237,1.542-1.96c0.118-0.722-0.347-0.878-0.7-0.915
			C5.302,4.958,4.824,5.135,4.741,5.597c-0.083-0.463-0.56-0.64-0.848-0.608c-0.353,0.037-0.818,0.193-0.7,0.915
			C3.312,6.626,4.748,7.864,4.748,7.864z"/>
		<path style="fill:#030104;" d="M10.66,4.989c-0.288-0.031-0.766,0.146-0.849,0.608C9.728,5.134,9.25,4.957,8.963,4.989
			c-0.354,0.037-0.818,0.193-0.7,0.915c0.118,0.723,1.554,1.96,1.554,1.96s1.425-1.237,1.543-1.96
			C11.478,5.182,11.013,5.026,10.66,4.989z"/>
		<path style="fill:#030104;" d="M7.406,10.782c-1.142-0.009-2.269-0.393-3.44-0.938c0.356,0.555,0.88,0.985,1.469,1.301
			c0.59,0.313,1.267,0.507,1.959,0.514c0.691,0.014,1.383-0.167,1.976-0.489c0.596-0.319,1.096-0.776,1.452-1.325
			c-0.595,0.272-1.151,0.527-1.718,0.695C8.54,10.708,7.973,10.788,7.406,10.782z"/>
	</g>
</g>
<g>
</g>
<g>
</g>
<g>
</g>
<g>
</g>
<g>
</g>
<g>
</g>
<g>
</g>
<g>
</g>
<g>
</g>
<g>
</g>
<g>
</g>
<g>
</g>
<g>
</g>
<g>
</g>
<g>
</g>
</svg>
